# Blender v2.82 (sub 7) OBJ File: ''
# www.blender.org
mtllib doom_map.mtl
o Cube.001
v 0.000000 3.000000 -3.100000
v 0.000000 -1.000000 -3.100000
v 6.000000 3.000000 -3.100000
v 6.000000 -1.000000 -3.100000
v 0.000000 3.000000 -2.900000
v 0.000000 -1.000000 -2.900000
v 6.000000 3.000000 -2.900000
v 6.000000 -1.000000 -2.900000
vt 0.023437 0.029270
vt 0.023437 -0.912189
vt 0.964897 -0.912189
vt 0.964897 0.029270
vt 0.964897 0.970729
vt 1.906356 0.029270
vt 1.906356 0.970729
vt -1.859481 0.970729
vt -1.859481 0.029271
vt -0.918022 0.029270
vt -0.918022 0.970729
vt 0.023437 1.912189
vt 0.023437 0.970729
vt 0.964897 1.912189
vn 0.0000 1.0000 0.0000
vn 1.0000 0.0000 0.0000
vn 0.0000 0.0000 1.0000
vn 0.0000 -1.0000 0.0000
vn -0.0000 0.0000 -1.0000
vn -1.0000 0.0000 0.0000
usemtl Material.001
s off
f 1/1/1 5/2/1 7/3/1 3/4/1
f 4/5/2 3/4/2 7/6/2 8/7/2
f 8/8/3 7/9/3 5/10/3 6/11/3
f 6/12/4 2/13/4 4/5/4 8/14/4
f 2/13/5 1/1/5 3/4/5 4/5/5
f 6/11/6 5/10/6 1/1/6 2/13/6
o Cube.002
v 0.100000 -1.000001 2.999999
v 0.100000 2.999999 3.000001
v 0.100000 -0.999999 -3.000001
v 0.100000 3.000001 -2.999999
v -0.100000 -1.000001 2.999999
v -0.100000 2.999999 3.000001
v -0.100000 -0.999999 -3.000001
v -0.100000 3.000001 -2.999999
vt 0.035156 0.024386
vt 0.035156 -0.919029
vt 0.978571 -0.919029
vt 0.978571 0.024386
vt 0.978572 0.967801
vt 1.921987 0.024386
vt 1.921987 0.967801
vt -1.851674 0.967802
vt -1.851674 0.024386
vt -0.908259 0.024386
vt -0.908259 0.967801
vt 0.035156 1.911216
vt 0.035156 0.967801
vt 0.978572 1.911216
vn 0.0000 -1.0000 -0.0000
vn 0.0000 0.0000 -1.0000
vn -1.0000 0.0000 0.0000
vn 0.0000 1.0000 0.0000
vn 1.0000 -0.0000 0.0000
vn 0.0000 -0.0000 1.0000
usemtl Material.001
s off
f 9/15/7 13/16/7 15/17/7 11/18/7
f 12/19/8 11/18/8 15/20/8 16/21/8
f 16/22/9 15/23/9 13/24/9 14/25/9
f 14/26/10 10/27/10 12/19/10 16/28/10
f 10/27/11 9/15/11 11/18/11 12/19/11
f 14/25/12 13/24/12 9/15/12 10/27/12
o Cube.003
v 0.000000 -1.000000 3.099999
v 0.000000 3.000000 3.100000
v 6.000000 -1.000000 3.100000
v 6.000000 3.000000 3.100001
v 0.000000 -1.000000 2.899999
v 0.000000 3.000000 2.900000
v 6.000000 -1.000000 2.900000
v 6.000000 3.000000 2.900001
vt 0.035156 0.029120
vt 0.035156 -0.912641
vt 0.976917 -0.912641
vt 0.976917 0.029120
vt 0.976917 0.970880
vt 1.918677 0.029120
vt 1.918677 0.970880
vt -1.848365 0.970880
vt -1.848365 0.029120
vt -0.906604 0.029120
vt -0.906604 0.970880
vt 0.035156 1.912641
vt 0.035156 0.970880
vt 0.976917 1.912641
vn 0.0000 -1.0000 0.0000
vn 1.0000 0.0000 0.0000
vn 0.0000 0.0000 -1.0000
vn 0.0000 1.0000 0.0000
vn -0.0000 -0.0000 1.0000
vn -1.0000 0.0000 0.0000
usemtl Material.001
s off
f 17/29/13 21/30/13 23/31/13 19/32/13
f 20/33/14 19/32/14 23/34/14 24/35/14
f 24/36/15 23/37/15 21/38/15 22/39/15
f 22/40/16 18/41/16 20/33/16 24/42/16
f 18/41/17 17/29/17 19/32/17 20/33/17
f 22/39/18 21/38/18 17/29/18 18/41/18
o Cube.004
v 6.100000 -1.000001 2.999999
v 6.100000 2.999999 3.000001
v 6.100000 -0.999999 -3.000001
v 6.100000 3.000001 -2.999999
v 5.900000 -1.000001 2.999999
v 5.900000 2.999999 3.000001
v 5.900000 -0.999999 -3.000001
v 5.900000 3.000001 -2.999999
vt 0.023438 0.015600
vt 0.023437 -0.937576
vt 0.976613 -0.937576
vt 0.976613 0.015600
vt 0.976613 0.968775
vt 1.929789 0.015600
vt 1.929789 0.968775
vt -1.882914 0.968775
vt -1.882914 0.015600
vt -0.929738 0.015600
vt -0.929738 0.968775
vt 0.023438 1.921951
vt 0.023438 0.968775
vt 0.976613 1.921951
vn 0.0000 -1.0000 -0.0000
vn 0.0000 0.0000 -1.0000
vn -1.0000 -0.0000 0.0000
vn 0.0000 1.0000 0.0000
vn 1.0000 -0.0000 0.0000
vn 0.0000 -0.0000 1.0000
usemtl Material.001
s off
f 25/43/19 29/44/19 31/45/19 27/46/19
f 28/47/20 27/46/20 31/48/20 32/49/20
f 32/50/21 31/51/21 29/52/21 30/53/21
f 30/54/22 26/55/22 28/47/22 32/56/22
f 26/55/23 25/43/23 27/46/23 28/47/23
f 30/53/24 29/52/24 25/43/24 26/55/24
o Cube_Cube.005
v 1.950000 -1.008585 1.350000
v 1.950000 2.895315 1.350000
v 1.950000 -1.008585 0.650000
v 1.950000 2.895315 0.650000
v 2.650000 -1.008585 1.350000
v 2.650000 2.895315 1.350000
v 2.650000 -1.008585 0.650000
v 2.650000 2.895315 0.650000
vt 1.361291 0.060355
vt 1.361291 0.970895
vt 1.153302 0.970895
vt 1.153302 0.060355
vt 0.945312 0.970895
vt 0.945312 0.060355
vt 0.737323 0.970895
vt 0.737323 0.060355
vt 0.529334 0.970895
vt 0.529334 0.060355
vt 0.945312 -0.850184
vt 0.737323 -0.850184
vt 0.945312 1.881434
vt 0.737323 1.881434
vn -1.0000 0.0000 0.0000
vn 0.0000 0.0000 -1.0000
vn 1.0000 0.0000 0.0000
vn 0.0000 0.0000 1.0000
vn 0.0000 -1.0000 0.0000
vn 0.0000 1.0000 0.0000
usemtl Material.001
s off
f 33/57/25 34/58/25 36/59/25 35/60/25
f 35/60/26 36/59/26 40/61/26 39/62/26
f 39/62/27 40/61/27 38/63/27 37/64/27
f 37/64/28 38/63/28 34/65/28 33/66/28
f 35/67/29 39/62/29 37/64/29 33/68/29
f 40/61/30 36/69/30 34/70/30 38/63/30
o Cube.008_Cube.009
v 2.000000 -1.000000 1.000000
v 2.000000 1.000000 1.000000
v 2.000000 -1.000000 -1.000000
v 2.000000 1.000000 -1.000000
v 5.000000 -1.000000 1.000000
v 5.000000 -1.000000 -1.000000
vt 1.153112 0.163831
vt -0.153112 0.163831
vt -0.153113 -1.459337
vt 1.153112 -1.459337
vt -0.153113 0.836168
vt -1.459337 0.836168
vt -1.459337 -1.459337
vt -0.153113 -1.459337
vt -0.055037 0.229403
vt 1.881594 0.230757
vt -0.470574 2.120929
vt 0.289972 3.067368
vt 0.705510 1.175843
vt 2.642140 1.177196
vt 2.459337 0.163831
vt 1.153112 0.163831
vt 1.153112 -1.459337
vt 2.459337 -1.459337
vn -1.0000 0.0000 0.0000
vn 0.5547 0.8321 0.0000
vn 0.0000 0.0000 -1.0000
vn 0.0000 0.0000 1.0000
vn 0.0000 -1.0000 0.0000
usemtl Material.001
s off
f 41/71/31 42/72/31 44/73/31 43/74/31
f 44/75/32 42/76/32 45/77/32 46/78/32
f 43/79/33 44/80/33 46/81/33
f 42/82/34 41/83/34 45/84/34
f 43/85/35 46/86/35 45/87/35 41/88/35
o Cube.009_Cube.010
v 0.000000 -1.150000 3.000000
v 0.000000 -0.850000 3.000000
v 0.000000 -1.150000 -3.000000
v 0.000000 -0.850000 -3.000000
v 6.000000 -1.150000 3.000000
v 6.000000 -0.850000 3.000000
v 6.000000 -1.150000 -3.000000
v 6.000000 -0.850000 -3.000000
vt -0.081022 -1.824087
vt 1.081022 -1.824087
vt 1.081022 -0.662044
vt -0.081022 -0.662044
vt 1.081022 0.500000
vt -0.081022 0.500000
vt 1.081022 1.662044
vt -0.081022 1.662044
vt 1.081022 2.824087
vt -0.081022 2.824087
vt -1.243065 0.500000
vt -1.243065 1.662044
vt 2.243065 0.500000
vt 2.243065 1.662044
vn -1.0000 0.0000 0.0000
vn 0.0000 0.0000 -1.0000
vn 1.0000 0.0000 0.0000
vn 0.0000 0.0000 1.0000
vn 0.0000 -1.0000 0.0000
vn 0.0000 1.0000 0.0000
usemtl Material.002
s off
f 47/89/36 48/90/36 50/91/36 49/92/36
f 49/92/37 50/91/37 54/93/37 53/94/37
f 53/94/38 54/93/38 52/95/38 51/96/38
f 51/96/39 52/95/39 48/97/39 47/98/39
f 49/99/40 53/94/40 51/96/40 47/100/40
f 54/93/41 50/101/41 48/102/41 52/95/41
o Cube.010_Cube.011
v 0.000000 2.686231 3.000000
v 0.000000 2.986231 3.000000
v 0.000000 2.686231 -3.000000
v 0.000000 2.986231 -3.000000
v 6.000000 2.686231 3.000000
v 6.000000 2.986231 3.000000
v 6.000000 2.686231 -3.000000
v 6.000000 2.986231 -3.000000
vt 0.020493 -1.898495
vt 0.979507 -1.898495
vt 0.979507 -0.939482
vt 0.020493 -0.939482
vt 0.979507 0.019531
vt 0.020493 0.019531
vt 0.979507 0.978544
vt 0.020493 0.978544
vt 0.979507 1.937558
vt 0.020493 1.937558
vt -0.938520 0.019531
vt -0.938520 0.978544
vt 1.938520 0.019531
vt 1.938520 0.978544
vn -1.0000 0.0000 0.0000
vn 0.0000 0.0000 -1.0000
vn 1.0000 0.0000 0.0000
vn 0.0000 0.0000 1.0000
vn 0.0000 -1.0000 0.0000
vn 0.0000 1.0000 0.0000
usemtl Material.001
s off
f 55/103/42 56/104/42 58/105/42 57/106/42
f 57/106/43 58/105/43 62/107/43 61/108/43
f 61/108/44 62/107/44 60/109/44 59/110/44
f 59/110/45 60/109/45 56/111/45 55/112/45
f 57/113/46 61/108/46 59/110/46 55/114/46
f 62/107/47 58/115/47 56/116/47 60/109/47
o Cube.011_Cube.012
v 0.000000 0.750252 3.000000
v 0.000000 1.050252 3.000000
v 0.000000 0.750252 -3.000000
v 0.000000 1.050252 -3.000000
v 6.000000 0.750252 3.000000
v 6.000000 1.050252 3.000000
v 6.000000 0.750252 -3.000000
v 6.000000 1.050252 -3.000000
v 2.000000 1.050252 -1.000000
v 2.000000 0.750252 -1.000000
v 4.000000 1.050252 -1.000000
v 4.000000 0.750252 -1.000000
v 4.000000 1.050252 1.000000
v 4.000000 0.750252 1.000000
v 2.000000 1.050252 0.110503
v 2.000000 0.750252 -0.189497
v 2.000000 1.050252 1.000000
v 2.000000 0.750252 1.000000
vt -0.316979 -2.767917
vt 1.316979 -2.767917
vt 1.316979 -1.133959
vt -0.316979 -1.133959
vt 1.316979 0.500000
vt -0.316979 0.500000
vt 1.316979 2.133959
vt -0.316979 2.133959
vt 1.316979 3.767917
vt -0.316979 3.767917
vt -1.950938 0.500000
vt -0.861632 1.044653
vt -1.406285 1.044653
vt -1.406285 1.265374
vt 1.861632 1.044653
vt 1.861632 1.589306
vt 2.406285 1.589306
vt 2.406285 1.347072
vt 2.950938 2.133959
vt 0.345185 2.133959
vt 0.590279 2.133959
vt 0.590279 0.500000
vt 0.345185 0.500000
vt 0.590279 -1.133959
vt 0.345185 -1.133959
vt 2.406286 1.044653
vt 2.950938 0.500000
vt 0.590279 -2.041217
vt 0.590279 -2.767917
vt 0.345185 -2.767917
vt 0.345184 -1.796123
vt 0.345185 3.767917
vt 0.590279 3.767917
vt -1.406285 1.589306
vt -0.861632 1.589306
vt -1.950938 2.133959
vn -1.0000 0.0000 0.0000
vn 0.0000 0.0000 -1.0000
vn 1.0000 0.0000 0.0000
vn 0.0000 0.0000 1.0000
vn 0.0000 -1.0000 -0.0000
vn 0.0000 1.0000 -0.0000
usemtl Material.002
s off
f 63/117/48 64/118/48 66/119/48 65/120/48
f 65/120/49 66/119/49 70/121/49 69/122/49
f 69/122/50 70/121/50 68/123/50 67/124/50
f 67/124/51 68/123/51 64/125/51 63/126/51
f 65/127/52 69/122/52 74/128/52 72/129/52 78/130/52
f 70/121/53 73/131/53 75/132/53 79/133/53 77/134/53 64/135/53 68/123/53
f 76/136/48 75/137/48 73/138/48 74/139/48
f 74/139/51 73/138/51 71/140/51 72/141/51
f 64/135/53 77/134/53 71/142/53 73/131/53 70/121/53 66/143/53
f 72/141/50 71/140/50 77/144/50 79/145/50 80/146/50 78/147/50
f 80/148/49 79/149/49 75/137/49 76/136/49
f 80/150/52 76/151/52 74/128/52 69/122/52 67/124/52 63/152/52 65/127/52 78/130/52
o Cube.005_Cube.014
v 3.750000 -1.008585 1.350000
v 3.750000 2.895315 1.350000
v 3.750000 -1.008585 0.650000
v 3.750000 2.895315 0.650000
v 4.450000 -1.008585 1.350000
v 4.450000 2.895315 1.350000
v 4.450000 -1.008585 0.650000
v 4.450000 2.895315 0.650000
vt 1.361291 0.060355
vt 1.361291 0.970895
vt 1.153302 0.970895
vt 1.153302 0.060355
vt 0.945312 0.970895
vt 0.945312 0.060355
vt 0.737323 0.970895
vt 0.737323 0.060355
vt 0.529334 0.970895
vt 0.529334 0.060355
vt 0.945312 -0.850184
vt 0.737323 -0.850184
vt 0.945312 1.881434
vt 0.737323 1.881434
vn -1.0000 0.0000 0.0000
vn 0.0000 0.0000 -1.0000
vn 1.0000 0.0000 0.0000
vn 0.0000 0.0000 1.0000
vn 0.0000 -1.0000 0.0000
vn 0.0000 1.0000 0.0000
usemtl Material.001
s off
f 81/153/54 82/154/54 84/155/54 83/156/54
f 83/156/55 84/155/55 88/157/55 87/158/55
f 87/158/56 88/157/56 86/159/56 85/160/56
f 85/160/57 86/159/57 82/161/57 81/162/57
f 83/163/58 87/158/58 85/160/58 81/164/58
f 88/157/59 84/165/59 82/166/59 86/159/59
o Cube.006_Cube.015
v 1.950000 -1.008585 -0.550000
v 1.950000 2.895315 -0.550000
v 1.950000 -1.008585 -1.250000
v 1.950000 2.895315 -1.250000
v 2.650000 -1.008585 -0.550000
v 2.650000 2.895315 -0.550000
v 2.650000 -1.008585 -1.250000
v 2.650000 2.895315 -1.250000
vt 1.361291 0.060355
vt 1.361291 0.970895
vt 1.153302 0.970895
vt 1.153302 0.060355
vt 0.945312 0.970895
vt 0.945312 0.060355
vt 0.737323 0.970895
vt 0.737323 0.060355
vt 0.529334 0.970895
vt 0.529334 0.060355
vt 0.945312 -0.850184
vt 0.737323 -0.850184
vt 0.945312 1.881434
vt 0.737323 1.881434
vn -1.0000 0.0000 0.0000
vn 0.0000 0.0000 -1.0000
vn 1.0000 0.0000 0.0000
vn 0.0000 0.0000 1.0000
vn 0.0000 -1.0000 0.0000
vn 0.0000 1.0000 0.0000
usemtl Material.001
s off
f 89/167/60 90/168/60 92/169/60 91/170/60
f 91/170/61 92/169/61 96/171/61 95/172/61
f 95/172/62 96/171/62 94/173/62 93/174/62
f 93/174/63 94/173/63 90/175/63 89/176/63
f 91/177/64 95/172/64 93/174/64 89/178/64
f 96/171/65 92/179/65 90/180/65 94/173/65
o Cube.007_Cube.016
v 3.850000 -1.008585 -0.550000
v 3.850000 2.895315 -0.550000
v 3.850000 -1.008585 -1.250000
v 3.850000 2.895315 -1.250000
v 4.550000 -1.008585 -0.550000
v 4.550000 2.895315 -0.550000
v 4.550000 -1.008585 -1.250000
v 4.550000 2.895315 -1.250000
vt 1.361291 0.060355
vt 1.361291 0.970895
vt 1.153302 0.970895
vt 1.153302 0.060355
vt 0.945312 0.970895
vt 0.945312 0.060355
vt 0.737323 0.970895
vt 0.737323 0.060355
vt 0.529334 0.970895
vt 0.529334 0.060355
vt 0.945312 -0.850184
vt 0.737323 -0.850184
vt 0.945312 1.881434
vt 0.737323 1.881434
vn -1.0000 0.0000 0.0000
vn 0.0000 0.0000 -1.0000
vn 1.0000 0.0000 0.0000
vn 0.0000 0.0000 1.0000
vn 0.0000 -1.0000 0.0000
vn 0.0000 1.0000 0.0000
usemtl Material.001
s off
f 97/181/66 98/182/66 100/183/66 99/184/66
f 99/184/67 100/183/67 104/185/67 103/186/67
f 103/186/68 104/185/68 102/187/68 101/188/68
f 101/188/69 102/187/69 98/189/69 97/190/69
f 99/191/70 103/186/70 101/188/70 97/192/70
f 104/185/71 100/193/71 98/194/71 102/187/71
o Cube.012_Cube.017
v 0.000000 0.708910 3.000000
v 0.000000 0.881900 3.000000
v 0.000000 0.708910 -3.000000
v 0.000000 0.881900 -3.000000
v 6.000000 0.708910 3.000000
v 6.000000 0.881900 3.000000
v 6.000000 0.708910 -3.000000
v 6.000000 0.881900 -3.000000
v 2.000000 0.881900 -1.000000
v 2.000000 0.708910 -1.000000
v 4.000000 0.881900 -1.000000
v 4.000000 0.708910 -1.000000
v 4.000000 0.881900 1.000000
v 4.000000 0.708910 1.000000
v 2.000000 0.881900 0.110503
v 2.000000 0.708910 -0.189497
v 2.000000 0.881900 1.000000
v 2.000000 0.708910 1.000000
vt -0.316979 -2.767917
vt 1.316979 -2.767917
vt 1.316979 -1.133959
vt -0.316979 -1.133959
vt 1.316979 0.500000
vt -0.316979 0.500000
vt 1.316979 2.133959
vt -0.316979 2.133959
vt 1.316979 3.767917
vt -0.316979 3.767917
vt -1.950938 0.500000
vt -0.861632 1.044653
vt -1.406285 1.044653
vt -1.406285 1.265374
vt 1.861632 1.044653
vt 1.861632 1.589306
vt 2.406285 1.589306
vt 2.406285 1.347072
vt 2.950938 2.133959
vt 0.345185 2.133959
vt 0.590279 2.133959
vt 0.590279 0.500000
vt 0.345185 0.500000
vt 0.590279 -1.133959
vt 0.345185 -1.133959
vt 2.406286 1.044653
vt 2.950938 0.500000
vt 0.590279 -2.041217
vt 0.590279 -2.767917
vt 0.345185 -2.767917
vt 0.345184 -1.796123
vt 0.345185 3.767917
vt 0.590279 3.767917
vt -1.406285 1.589306
vt -0.861632 1.589306
vt -1.950938 2.133959
vn -1.0000 0.0000 0.0000
vn 0.0000 0.0000 -1.0000
vn 1.0000 0.0000 0.0000
vn 0.0000 0.0000 1.0000
vn 0.0000 -1.0000 0.0000
vn 0.0000 1.0000 -0.0000
usemtl Material.001
s off
f 105/195/72 106/196/72 108/197/72 107/198/72
f 107/198/73 108/197/73 112/199/73 111/200/73
f 111/200/74 112/199/74 110/201/74 109/202/74
f 109/202/75 110/201/75 106/203/75 105/204/75
f 107/205/76 111/200/76 116/206/76 114/207/76 120/208/76
f 112/199/77 115/209/77 117/210/77 121/211/77 119/212/77 106/213/77 110/201/77
f 118/214/72 117/215/72 115/216/72 116/217/72
f 116/217/75 115/216/75 113/218/75 114/219/75
f 106/213/77 119/212/77 113/220/77 115/209/77 112/199/77 108/221/77
f 114/219/74 113/218/74 119/222/74 121/223/74 122/224/74 120/225/74
f 122/226/73 121/227/73 117/215/73 118/214/73
f 122/228/76 118/229/76 116/206/76 111/200/76 109/202/76 105/230/76 107/205/76 120/208/76
