# Blender v2.82 (sub 7) OBJ File: ''
# www.blender.org
mtllib tank.mtl
o Cube
v 2.712246 1.791307 -4.644496
v 2.712246 0.717437 -4.644496
v 2.712246 1.236820 5.434004
v 2.712246 0.321415 4.704650
v -2.855217 1.791307 -4.644496
v -2.855217 0.717437 -4.644496
v -2.855217 1.236820 5.434004
v -2.855217 0.321415 4.704650
v -2.855217 0.003267 2.365669
v -0.071486 0.717437 -4.644496
v -0.071486 0.321415 4.704650
v 2.712246 0.003267 2.365670
v -0.071486 0.003267 2.365669
v -1.463351 0.717437 -4.644496
v 2.712246 0.011077 -3.743940
v -2.855217 0.011077 -3.743940
v 1.320380 0.717437 -4.644496
v -0.071486 0.011077 -3.743940
v -1.463351 0.003267 2.365669
v 1.320380 0.003267 2.365670
v 1.320380 0.011077 -3.743940
v -1.463351 0.011077 -3.743940
vt 0.410071 0.813333
vt 0.486878 0.813333
vt 0.486878 0.890141
vt 0.410071 0.890141
vt 0.333263 0.890141
vt 0.410071 0.966949
vt 0.333263 0.966949
vt 0.333263 0.928545
vt 0.333263 0.659718
vt 0.410071 0.659718
vt 0.410071 0.736526
vt 0.333263 0.736526
vt 0.333263 0.717324
vt 0.333263 0.698122
vt 0.294859 0.851737
vt 0.314061 0.851737
vt 0.333263 0.851737
vt 0.294859 0.890141
vt 0.333263 0.813333
vt 0.333263 0.832535
vt 0.333263 0.794131
vt 0.333263 0.774929
vt 0.333263 0.755728
vt 0.256455 0.851737
vt 0.275657 0.851737
vt 0.256455 0.890141
vt 0.275657 0.832535
vt 0.294859 0.832535
vt 0.314061 0.832535
vt 0.294859 0.813333
vt 0.314061 0.813333
vt 0.256455 0.832535
vt 0.256455 0.813333
vt 0.275657 0.813333
vn 0.0000 0.9985 0.0549
vn 0.0000 -0.6231 0.7821
vn -1.0000 0.0000 0.0000
vn -0.0000 -0.9909 0.1348
vn 1.0000 -0.0000 0.0000
vn 0.0000 0.0000 -1.0000
vn 0.0000 -1.0000 -0.0013
vn 0.0000 -0.7868 -0.6172
usemtl Material
s off
f 1/1/1 5/2/1 7/3/1 3/4/1
f 4/5/2 3/4/2 7/6/2 8/7/2 11/8/2
f 8/9/3 7/10/3 5/11/3 6/12/3 16/13/3 9/14/3
f 13/15/4 20/16/4 12/17/4 4/5/4 11/18/4
f 2/19/5 1/1/5 3/4/5 4/5/5 12/17/5 15/20/5
f 6/12/6 5/11/6 1/1/6 2/19/6 17/21/6 10/22/6 14/23/6
f 9/24/4 19/25/4 13/15/4 11/18/4 8/26/4
f 22/27/7 18/28/7 13/15/7 19/25/7
f 21/29/7 15/20/7 12/17/7 20/16/7
f 18/28/7 21/29/7 20/16/7 13/15/7
f 10/30/8 17/31/8 21/29/8 18/28/8
f 17/31/8 2/19/8 15/20/8 21/29/8
f 16/32/7 22/27/7 19/25/7 9/24/7
f 6/33/8 14/34/8 22/27/8 16/32/8
f 14/34/8 10/30/8 18/28/8 22/27/8
o Cube.001
v 1.798022 2.439300 -2.847730
v 1.798022 1.803071 -2.847730
v 2.188434 2.299473 2.713638
v 2.188434 1.698709 2.713638
v -1.851273 2.439300 -2.847730
v -1.851273 1.803071 -2.847730
v -2.241684 2.299473 2.713638
v -2.241684 1.698709 2.713638
v -0.026625 2.299473 2.713638
v 2.188434 2.439300 1.948285
v -2.241684 2.439300 1.948285
v -0.026625 2.439300 -2.847730
v -0.026625 2.439300 1.948285
v -2.241684 1.616448 2.034164
v -0.026625 1.803071 -2.847730
v -0.026625 1.698709 2.713638
v 2.188434 1.616448 2.034164
v -0.026625 1.616448 2.034164
v -1.134154 1.803071 -2.847730
v 1.798022 1.657578 -2.186084
v -1.851273 1.657578 -2.186084
v 1.080904 1.803071 -2.847730
v -0.026625 1.657578 -1.559089
v -1.134154 1.616448 2.034164
v 1.080904 1.616448 2.034164
v 1.080904 1.657578 -1.559089
v -1.134154 1.657578 -1.559089
vt 0.163924 0.887795
vt 0.195053 0.887795
vt 0.195053 0.918924
vt 0.163924 0.918924
vt 0.070538 0.918924
vt 0.132795 0.918924
vt 0.132795 0.950053
vt 0.132795 0.981182
vt 0.070538 0.981182
vt 0.070538 0.950053
vt 0.070538 0.732152
vt 0.132795 0.732152
vt 0.132795 0.763280
vt 0.132795 0.794409
vt 0.070538 0.794409
vt 0.070538 0.778845
vt 0.070538 0.763280
vt 0.039409 0.887795
vt 0.054974 0.887795
vt 0.070538 0.887795
vt 0.039409 0.918924
vt 0.070538 0.856667
vt 0.132795 0.856667
vt 0.132795 0.887795
vt 0.070538 0.872231
vt 0.132795 0.825538
vt 0.070538 0.841102
vt 0.070538 0.825538
vt 0.070538 0.809974
vt 0.163924 0.856667
vt 0.195053 0.856667
vt 0.008280 0.887795
vt 0.023845 0.887795
vt 0.008280 0.918924
vt 0.023845 0.872231
vt 0.039409 0.872231
vt 0.054974 0.872231
vt 0.039409 0.856667
vt 0.054974 0.856667
vt 0.008280 0.872231
vt 0.008280 0.856667
vt 0.023845 0.856667
vn 0.0000 0.9837 0.1797
vn 0.0000 0.0000 1.0000
vn -0.9968 -0.0336 -0.0721
vn 0.0000 -0.9928 0.1202
vn 0.9968 -0.0336 -0.0721
vn 0.0000 0.0000 -1.0000
vn 0.0000 1.0000 0.0000
vn 0.0000 -0.9999 -0.0114
vn -0.0036 -0.9999 -0.0103
vn 0.0000 -0.9937 -0.1122
vn -0.0644 -0.9870 -0.1473
vn 0.0036 -0.9999 -0.0103
vn 0.0644 -0.9870 -0.1473
usemtl Material
s off
f 35/35/9 33/36/9 29/37/9 31/38/9
f 26/39/10 25/40/10 31/41/10 29/42/10 30/43/10 38/44/10
f 30/45/11 29/46/11 33/47/11 27/48/11 28/49/11 43/50/11 36/51/11
f 40/52/12 47/53/12 39/54/12 26/39/12 38/55/12
f 24/56/13 23/57/13 32/58/13 25/40/13 26/39/13 39/54/13 42/59/13
f 28/49/14 27/48/14 34/60/14 23/57/14 24/56/14 44/61/14 37/62/14 41/63/14
f 32/58/9 35/35/9 31/38/9 25/40/9
f 23/57/15 34/64/15 35/35/15 32/58/15
f 34/64/15 27/65/15 33/36/15 35/35/15
f 36/66/12 46/67/12 40/52/12 38/55/12 30/68/12
f 49/69/16 45/70/16 40/52/16 46/67/16
f 48/71/17 42/59/17 39/54/17 47/53/17
f 45/70/16 48/71/16 47/53/16 40/52/16
f 37/72/18 44/73/18 48/71/18 45/70/18
f 44/73/19 24/56/19 42/59/19 48/71/19
f 43/74/20 49/69/20 46/67/20 36/66/20
f 28/75/21 41/76/21 49/69/21 43/74/21
f 41/76/18 37/72/18 45/70/18 49/69/18
o Cube.003
v -1.493384 -0.576217 3.732845
v -1.493384 0.767816 4.541656
v -1.493384 -0.576217 -3.247490
v -1.493384 0.767816 -4.355124
v -2.553466 -0.576217 3.732845
v -2.553466 0.767816 4.541656
v -2.553466 -0.576217 -3.247490
v -2.553466 0.767816 -4.355124
v -1.493384 0.559273 -4.361744
v -2.023425 -0.576217 -3.247490
v -2.023425 0.767816 -4.355124
v -2.553466 0.559273 -4.361744
v -2.023425 0.559273 -4.361744
v -1.493384 0.579210 4.654266
v -2.553466 0.579210 4.654266
v -2.023425 -0.576217 3.732845
v -2.023425 0.767816 4.541656
v -2.023425 0.579210 4.654266
vt 0.612134 0.585202
vt 0.612134 0.680934
vt 0.693012 0.680934
vt 0.707866 0.680934
vt 0.707866 0.585202
vt 0.694432 0.585202
vt 0.693012 0.728801
vt 0.693012 0.776667
vt 0.707866 0.776667
vt 0.707866 0.728801
vt 0.612134 0.776667
vt 0.612134 0.872399
vt 0.694432 0.872399
vt 0.707866 0.872399
vt 0.694432 0.920265
vt 0.694432 0.968131
vt 0.707866 0.968131
vt 0.707866 0.920265
vt 0.516402 0.776667
vt 0.516402 0.872399
vt 0.564268 0.872399
vt 0.564268 0.776667
vt 0.755732 0.872399
vt 0.803598 0.872399
vt 0.803598 0.776667
vt 0.755732 0.776667
vt 0.612134 0.728801
vt 0.612134 0.920265
vt 0.612134 0.968131
vn 1.0000 -0.0000 0.0000
vn 0.0000 0.0317 -0.9995
vn -1.0000 -0.0000 0.0000
vn 0.0000 0.5126 0.8586
vn 0.0000 -1.0000 0.0000
vn 0.0000 1.0000 0.0000
vn 0.0000 -0.7004 -0.7137
vn 0.0000 -0.6235 0.7818
usemtl Material
s off
f 50/77/22 52/78/22 58/79/22 53/80/22 51/81/22 63/82/22
f 62/83/23 61/84/23 57/85/23 60/86/23
f 56/87/24 54/88/24 64/89/24 55/90/24 57/85/24 61/84/24
f 67/91/25 63/92/25 51/93/25 66/94/25
f 52/95/26 50/96/26 65/97/26 54/88/26 56/87/26 59/98/26
f 57/85/27 55/90/27 66/99/27 51/100/27 53/101/27 60/102/27
f 59/103/28 56/87/28 61/84/28 62/83/28
f 52/78/28 59/103/28 62/83/28 58/79/28
f 58/79/23 62/83/23 60/86/23 53/80/23
f 65/104/29 50/105/29 63/92/29 67/91/29
f 54/88/29 65/104/29 67/91/29 64/89/29
f 64/89/25 67/91/25 66/94/25 55/90/25
o Cube.002_Cube.004
v 2.335398 -0.576217 3.732845
v 2.335398 0.767816 4.541656
v 2.335398 -0.576217 -3.247490
v 2.335398 0.767816 -4.355124
v 1.275316 -0.576217 3.732845
v 1.275316 0.767816 4.541656
v 1.275316 -0.576217 -3.247490
v 1.275316 0.767816 -4.355124
v 2.335398 0.559273 -4.361744
v 1.805357 -0.576217 -3.247490
v 1.805357 0.767816 -4.355124
v 1.275316 0.559273 -4.361744
v 1.805357 0.559273 -4.361744
v 2.335398 0.579210 4.654266
v 1.275316 0.579210 4.654266
v 1.805357 -0.576217 3.732845
v 1.805357 0.767816 4.541656
v 1.805357 0.579210 4.654266
vt 0.809513 0.611386
vt 0.809513 0.699026
vt 0.883555 0.699026
vt 0.897154 0.699026
vt 0.897154 0.611386
vt 0.884855 0.611386
vt 0.883555 0.742846
vt 0.883555 0.786667
vt 0.897154 0.786667
vt 0.897154 0.742846
vt 0.809513 0.786667
vt 0.809513 0.874307
vt 0.884855 0.874307
vt 0.897154 0.874307
vt 0.884855 0.918127
vt 0.884855 0.961948
vt 0.897154 0.961948
vt 0.897154 0.918127
vt 0.721872 0.786667
vt 0.721872 0.874307
vt 0.765693 0.874307
vt 0.765693 0.786667
vt 0.940974 0.874307
vt 0.984794 0.874307
vt 0.984794 0.786667
vt 0.940974 0.786667
vt 0.809513 0.742846
vt 0.809513 0.918127
vt 0.809513 0.961948
vn 1.0000 -0.0000 0.0000
vn 0.0000 0.0317 -0.9995
vn -1.0000 -0.0000 0.0000
vn 0.0000 0.5126 0.8586
vn 0.0000 -1.0000 0.0000
vn 0.0000 1.0000 0.0000
vn 0.0000 -0.7004 -0.7137
vn 0.0000 -0.6235 0.7818
usemtl Material
s off
f 68/106/30 70/107/30 76/108/30 71/109/30 69/110/30 81/111/30
f 80/112/31 79/113/31 75/114/31 78/115/31
f 74/116/32 72/117/32 82/118/32 73/119/32 75/114/32 79/113/32
f 85/120/33 81/121/33 69/122/33 84/123/33
f 70/124/34 68/125/34 83/126/34 72/117/34 74/116/34 77/127/34
f 75/114/35 73/119/35 84/128/35 69/129/35 71/130/35 78/131/35
f 77/132/36 74/116/36 79/113/36 80/112/36
f 70/107/36 77/132/36 80/112/36 76/108/36
f 76/108/31 80/112/31 78/115/31 71/109/31
f 83/133/37 68/134/37 81/121/37 85/120/37
f 72/117/37 83/133/37 85/120/37 82/118/37
f 82/118/33 85/120/33 84/123/33 73/119/33
o Cylinder
v -0.090951 2.112236 2.252420
v -0.090951 2.112236 7.052421
v -0.045379 2.108625 2.252420
v -0.045379 2.108625 7.052421
v -0.001558 2.097931 2.252420
v -0.001558 2.097931 7.052421
v 0.038828 2.080565 2.252420
v 0.038828 2.080564 7.052421
v 0.074226 2.057194 2.252420
v 0.074226 2.057193 7.052421
v 0.103277 2.028716 2.252420
v 0.103277 2.028716 7.052421
v 0.124864 1.996226 2.252420
v 0.124864 1.996225 7.052421
v 0.138156 1.960972 2.252420
v 0.138156 1.960972 7.052421
v 0.142645 1.924309 2.252420
v 0.142645 1.924309 7.052421
v 0.138156 1.887646 2.252420
v 0.138156 1.887646 7.052421
v 0.124864 1.852392 2.252420
v 0.124864 1.852392 7.052421
v 0.103277 1.819902 2.252420
v 0.103277 1.819902 7.052421
v 0.074226 1.791424 2.252420
v 0.074226 1.791424 7.052421
v 0.038828 1.768053 2.252420
v 0.038828 1.768053 7.052421
v -0.001558 1.750687 2.252420
v -0.001558 1.750687 7.052421
v -0.045379 1.739993 2.252420
v -0.045379 1.739992 7.052421
v -0.090951 1.736382 2.252420
v -0.090951 1.736382 7.052421
v -0.136523 1.739993 2.252420
v -0.136523 1.739993 7.052421
v -0.180344 1.750687 2.252420
v -0.180344 1.750687 7.052421
v -0.220730 1.768053 2.252420
v -0.220730 1.768053 7.052421
v -0.256128 1.791425 2.252420
v -0.256128 1.791424 7.052421
v -0.285179 1.819902 2.252420
v -0.285179 1.819902 7.052421
v -0.306766 1.852393 2.252420
v -0.306766 1.852392 7.052421
v -0.320058 1.887646 2.252420
v -0.320058 1.887646 7.052421
v -0.324547 1.924309 2.252420
v -0.324547 1.924309 7.052421
v -0.320058 1.960972 2.252420
v -0.320058 1.960972 7.052421
v -0.306765 1.996226 2.252420
v -0.306765 1.996226 7.052421
v -0.285179 2.028716 2.252420
v -0.285179 2.028716 7.052421
v -0.256128 2.057194 2.252420
v -0.256128 2.057194 7.052421
v -0.220730 2.080565 2.252420
v -0.220730 2.080565 7.052421
v -0.180344 2.097931 2.252420
v -0.180344 2.097931 7.052421
v -0.136523 2.108625 2.252420
v -0.136523 2.108625 7.052421
vt 0.257188 0.377145
vt 0.257188 0.496000
vt 0.249760 0.496000
vt 0.249760 0.377145
vt 0.242331 0.496000
vt 0.242331 0.377145
vt 0.234903 0.496000
vt 0.234903 0.377145
vt 0.227475 0.496000
vt 0.227475 0.377145
vt 0.220046 0.496000
vt 0.220046 0.377145
vt 0.212618 0.496000
vt 0.212618 0.377145
vt 0.205189 0.496000
vt 0.205189 0.377145
vt 0.197761 0.496000
vt 0.197761 0.377145
vt 0.190332 0.496000
vt 0.190332 0.377145
vt 0.182904 0.496000
vt 0.182904 0.377145
vt 0.175476 0.496000
vt 0.175476 0.377145
vt 0.168047 0.496000
vt 0.168047 0.377145
vt 0.160619 0.496000
vt 0.160619 0.377145
vt 0.153190 0.496000
vt 0.153190 0.377145
vt 0.145762 0.496000
vt 0.145762 0.377145
vt 0.138333 0.496000
vt 0.138333 0.377145
vt 0.130905 0.496000
vt 0.130905 0.377145
vt 0.123477 0.496000
vt 0.123477 0.377145
vt 0.116048 0.496000
vt 0.116048 0.377145
vt 0.108620 0.496000
vt 0.108620 0.377145
vt 0.101191 0.496000
vt 0.101191 0.377145
vt 0.093763 0.496000
vt 0.093763 0.377145
vt 0.086334 0.496000
vt 0.086334 0.377145
vt 0.078906 0.496000
vt 0.078906 0.377145
vt 0.071478 0.496000
vt 0.071478 0.377145
vt 0.064049 0.496000
vt 0.064049 0.377145
vt 0.056621 0.496000
vt 0.056621 0.377145
vt 0.049192 0.496000
vt 0.049192 0.377145
vt 0.041764 0.496000
vt 0.041764 0.377145
vt 0.034335 0.496000
vt 0.034335 0.377145
vt 0.090036 0.373671
vt 0.078906 0.374768
vt 0.067776 0.373672
vt 0.057074 0.370425
vt 0.047211 0.365153
vt 0.038565 0.358058
vt 0.031470 0.349413
vt 0.026198 0.339550
vt 0.022952 0.328847
vt 0.021856 0.317717
vt 0.022952 0.306587
vt 0.026198 0.295885
vt 0.031470 0.286022
vt 0.038565 0.277377
vt 0.047211 0.270282
vt 0.057074 0.265010
vt 0.067776 0.261763
vt 0.078906 0.260667
vt 0.090036 0.261763
vt 0.100738 0.265010
vt 0.110601 0.270282
vt 0.119247 0.277377
vt 0.126342 0.286022
vt 0.131614 0.295885
vt 0.134860 0.306587
vt 0.135956 0.317717
vt 0.134860 0.328847
vt 0.131614 0.339550
vt 0.126342 0.349413
vt 0.119247 0.358058
vt 0.110601 0.365153
vt 0.100738 0.370425
vt 0.026907 0.496000
vt 0.026907 0.377145
vt 0.019479 0.496000
vt 0.019479 0.377145
vt 0.197761 0.374768
vt 0.208891 0.373671
vt 0.219593 0.370425
vt 0.229456 0.365153
vt 0.238101 0.358058
vt 0.245196 0.349413
vt 0.250468 0.339550
vt 0.253715 0.328847
vt 0.254811 0.317717
vt 0.253715 0.306587
vt 0.250468 0.295885
vt 0.245196 0.286022
vt 0.238101 0.277377
vt 0.229456 0.270282
vt 0.219593 0.265010
vt 0.208891 0.261763
vt 0.197761 0.260667
vt 0.186631 0.261763
vt 0.175929 0.265010
vt 0.166065 0.270282
vt 0.157420 0.277377
vt 0.150325 0.286022
vt 0.145053 0.295885
vt 0.141807 0.306587
vt 0.140710 0.317717
vt 0.141807 0.328847
vt 0.145053 0.339550
vt 0.150325 0.349413
vt 0.157420 0.358058
vt 0.166065 0.365153
vt 0.175929 0.370425
vt 0.186631 0.373672
vn 0.0790 0.9969 0.0000
vn 0.2371 0.9715 0.0000
vn 0.3950 0.9187 0.0000
vn 0.5510 0.8345 0.0000
vn 0.7000 0.7141 0.0000
vn 0.8329 0.5534 0.0000
vn 0.9357 0.3528 0.0000
vn 0.9926 0.1215 0.0000
vn 0.9926 -0.1215 0.0000
vn 0.9357 -0.3528 -0.0000
vn 0.8329 -0.5534 -0.0000
vn 0.7000 -0.7141 -0.0000
vn 0.5510 -0.8345 -0.0000
vn 0.3950 -0.9187 -0.0000
vn 0.2371 -0.9715 -0.0000
vn 0.0790 -0.9969 -0.0000
vn -0.0790 -0.9969 -0.0000
vn -0.2371 -0.9715 -0.0000
vn -0.3950 -0.9187 -0.0000
vn -0.5510 -0.8345 -0.0000
vn -0.7000 -0.7141 -0.0000
vn -0.8329 -0.5534 -0.0000
vn -0.9357 -0.3528 -0.0000
vn -0.9926 -0.1215 -0.0000
vn -0.9926 0.1215 0.0000
vn -0.9357 0.3528 0.0000
vn -0.8329 0.5534 0.0000
vn -0.7000 0.7141 0.0000
vn -0.5510 0.8345 0.0000
vn -0.3950 0.9187 0.0000
vn 0.0000 0.0000 1.0000
vn -0.2371 0.9715 0.0000
vn -0.0790 0.9969 0.0000
vn 0.0000 0.0000 -1.0000
usemtl Material
s off
f 86/135/38 87/136/38 89/137/38 88/138/38
f 88/138/39 89/137/39 91/139/39 90/140/39
f 90/140/40 91/139/40 93/141/40 92/142/40
f 92/142/41 93/141/41 95/143/41 94/144/41
f 94/144/42 95/143/42 97/145/42 96/146/42
f 96/146/43 97/145/43 99/147/43 98/148/43
f 98/148/44 99/147/44 101/149/44 100/150/44
f 100/150/45 101/149/45 103/151/45 102/152/45
f 102/152/46 103/151/46 105/153/46 104/154/46
f 104/154/47 105/153/47 107/155/47 106/156/47
f 106/156/48 107/155/48 109/157/48 108/158/48
f 108/158/49 109/157/49 111/159/49 110/160/49
f 110/160/50 111/159/50 113/161/50 112/162/50
f 112/162/51 113/161/51 115/163/51 114/164/51
f 114/164/52 115/163/52 117/165/52 116/166/52
f 116/166/53 117/165/53 119/167/53 118/168/53
f 118/168/54 119/167/54 121/169/54 120/170/54
f 120/170/55 121/169/55 123/171/55 122/172/55
f 122/172/56 123/171/56 125/173/56 124/174/56
f 124/174/57 125/173/57 127/175/57 126/176/57
f 126/176/58 127/175/58 129/177/58 128/178/58
f 128/178/59 129/177/59 131/179/59 130/180/59
f 130/180/60 131/179/60 133/181/60 132/182/60
f 132/182/61 133/181/61 135/183/61 134/184/61
f 134/184/62 135/183/62 137/185/62 136/186/62
f 136/186/63 137/185/63 139/187/63 138/188/63
f 138/188/64 139/187/64 141/189/64 140/190/64
f 140/190/65 141/189/65 143/191/65 142/192/65
f 142/192/66 143/191/66 145/193/66 144/194/66
f 144/194/67 145/193/67 147/195/67 146/196/67
f 89/197/68 87/198/68 149/199/68 147/200/68 145/201/68 143/202/68 141/203/68 139/204/68 137/205/68 135/206/68 133/207/68 131/208/68 129/209/68 127/210/68 125/211/68 123/212/68 121/213/68 119/214/68 117/215/68 115/216/68 113/217/68 111/218/68 109/219/68 107/220/68 105/221/68 103/222/68 101/223/68 99/224/68 97/225/68 95/226/68 93/227/68 91/228/68
f 146/196/69 147/195/69 149/229/69 148/230/69
f 148/230/70 149/229/70 87/231/70 86/232/70
f 86/233/71 88/234/71 90/235/71 92/236/71 94/237/71 96/238/71 98/239/71 100/240/71 102/241/71 104/242/71 106/243/71 108/244/71 110/245/71 112/246/71 114/247/71 116/248/71 118/249/71 120/250/71 122/251/71 124/252/71 126/253/71 128/254/71 130/255/71 132/256/71 134/257/71 136/258/71 138/259/71 140/260/71 142/261/71 144/262/71 146/263/71 148/264/71
